<?plantuml 1.2026.1?><svg xmlns="http://www.w3.org/2000/svg" xmlns:xlink="http://www.w3.org/1999/xlink" contentStyleType="text/css" data-diagram-type="ACTIVITY" height="1269px" preserveAspectRatio="none" style="width:1195px;height:1269px;background:#FFFFFF;" version="1.1" viewBox="0 0 1195 1269" width="1195px" zoomAndPan="magnify"><title>Push Notification Aktivit&#228;tsdiagramm</title><defs/><g><g class="title" data-source-line="1"><text fill="#000000" font-family="sans-serif" font-size="14" font-weight="bold" lengthAdjust="spacing" textLength="297.3564" x="447.6075" y="32.9951">Push Notification Aktivit&#228;tsdiagramm</text></g><ellipse cx="724.9761" cy="57.2969" fill="#222222" rx="10" ry="10" style="stroke:#222222;stroke-width:1;"/><rect fill="#F1F1F1" height="33.9688" rx="12.5" ry="12.5" style="stroke:#181818;stroke-width:0.5;" width="203.7031" x="623.1245" y="87.2969"/><text fill="#000000" font-family="sans-serif" font-size="12" lengthAdjust="spacing" textLength="183.7031" x="633.1245" y="108.4355">Nutzer konfiguriert Erinnerung</text><polygon fill="#F1F1F1" points="594.8989,141.2656,855.0532,141.2656,867.0532,153.2656,855.0532,165.2656,594.8989,165.2656,582.8989,153.2656,594.8989,141.2656" style="stroke:#181818;stroke-width:0.5;"/><text fill="#000000" font-family="sans-serif" font-size="11" lengthAdjust="spacing" textLength="260.1543" x="594.8989" y="157.0737">Unterst&#252;tzt Browser Push Benachrichtigungen?</text><text fill="#000000" font-family="sans-serif" font-size="11" lengthAdjust="spacing" textLength="9.9849" x="572.9141" y="150.6714">Ja</text><text fill="#000000" font-family="sans-serif" font-size="11" lengthAdjust="spacing" textLength="25.0239" x="867.0532" y="150.6714">Nein</text><polygon fill="#F1F1F1" points="348.4529,175.2656,500.4333,175.2656,512.4333,187.2656,500.4333,199.2656,348.4529,199.2656,336.4529,187.2656,348.4529,175.2656" style="stroke:#181818;stroke-width:0.5;"/><text fill="#000000" font-family="sans-serif" font-size="11" lengthAdjust="spacing" textLength="151.9805" x="348.4529" y="191.0737">Berechtigung schon erteilt?</text><text fill="#000000" font-family="sans-serif" font-size="11" lengthAdjust="spacing" textLength="9.9849" x="326.468" y="184.6714">Ja</text><text fill="#000000" font-family="sans-serif" font-size="11" lengthAdjust="spacing" textLength="25.0239" x="512.4333" y="184.6714">Nein</text><rect fill="#F1F1F1" height="33.9688" rx="12.5" ry="12.5" style="stroke:#181818;stroke-width:0.5;" width="207.0078" x="140.0344" y="209.2656"/><text fill="#000000" font-family="sans-serif" font-size="12" lengthAdjust="spacing" textLength="187.0078" x="150.0344" y="230.4043">Bestehende Subscription holen</text><rect fill="#F1F1F1" height="33.9688" rx="12.5" ry="12.5" style="stroke:#181818;stroke-width:0.5;" width="269.8789" x="470.4084" y="209.2656"/><text fill="#000000" font-family="sans-serif" font-size="12" lengthAdjust="spacing" textLength="249.8789" x="480.4084" y="230.4043">Benachrichtigungsberechtigung anfragen</text><polygon fill="#F1F1F1" points="490.6428,278.2344,720.053,278.2344,732.053,290.2344,720.053,302.2344,490.6428,302.2344,478.6428,290.2344,490.6428,278.2344" style="stroke:#181818;stroke-width:0.5;"/><text fill="#000000" font-family="sans-serif" font-size="11" lengthAdjust="spacing" textLength="229.4102" x="490.6428" y="294.0425">Erlaubt Nutzer Push Benachrichtigungen?</text><text fill="#000000" font-family="sans-serif" font-size="11" lengthAdjust="spacing" textLength="9.9849" x="468.658" y="287.6401">Ja</text><text fill="#000000" font-family="sans-serif" font-size="11" lengthAdjust="spacing" textLength="25.0239" x="732.053" y="287.6401">Nein</text><rect fill="#F1F1F1" height="33.9688" rx="12.5" ry="12.5" style="stroke:#181818;stroke-width:0.5;" width="183.2012" x="377.0422" y="312.2344"/><text fill="#000000" font-family="sans-serif" font-size="12" lengthAdjust="spacing" textLength="163.2012" x="387.0422" y="333.373">Push Subscription erstellen</text><rect fill="#F1F1F1" height="33.9688" rx="12.5" ry="12.5" style="stroke:#181818;stroke-width:0.5;" width="168.7871" x="657.6594" y="312.2344"/><text fill="#000000" font-family="sans-serif" font-size="12" lengthAdjust="spacing" textLength="148.7871" x="667.6594" y="333.373">Fehlermeldung anzeigen</text><ellipse cx="742.053" cy="377.2031" fill="none" rx="11" ry="11" style="stroke:#222222;stroke-width:1;"/><ellipse cx="742.053" cy="377.2031" fill="#222222" rx="6" ry="6" style="stroke:#222222;stroke-width:1;"/><polygon fill="#F1F1F1" points="424.4431,398.2031,436.4431,410.2031,424.4431,422.2031,412.4431,410.2031,424.4431,398.2031" style="stroke:#181818;stroke-width:0.5;"/><rect fill="#F1F1F1" height="33.9688" rx="12.5" ry="12.5" style="stroke:#181818;stroke-width:0.5;" width="280.4551" x="284.2156" y="442.2031"/><text fill="#000000" font-family="sans-serif" font-size="12" lengthAdjust="spacing" textLength="260.4551" x="294.2156" y="463.3418">Subscription und Erinnerung an API senden</text><rect fill="#F1F1F1" height="33.9688" rx="12.5" ry="12.5" style="stroke:#181818;stroke-width:0.5;" width="204.6699" x="322.1082" y="496.1719"/><text fill="#000000" font-family="sans-serif" font-size="12" lengthAdjust="spacing" textLength="184.6699" x="332.1082" y="517.3105">API speichert Erinnerung in DB</text><rect fill="#F1F1F1" height="33.9688" rx="12.5" ry="12.5" style="stroke:#181818;stroke-width:0.5;" width="213.9219" x="317.4822" y="605.8511"/><text fill="#000000" font-family="sans-serif" font-size="12" lengthAdjust="spacing" textLength="193.9219" x="327.4822" y="626.9897">Warten bis zum n&#228;chsten Check</text><polygon fill="#F1F1F1" points="367.7512,550.1406,481.135,550.1406,493.135,562.1406,481.135,574.1406,367.7512,574.1406,355.7512,562.1406,367.7512,550.1406" style="stroke:#181818;stroke-width:0.5;"/><text fill="#000000" font-family="sans-serif" font-size="11" lengthAdjust="spacing" textLength="25.0239" x="428.4431" y="584.3511">Nein</text><text fill="#000000" font-family="sans-serif" font-size="11" lengthAdjust="spacing" textLength="113.3838" x="367.7512" y="565.9487">Erinnerung ist f&#228;llig?</text><text fill="#000000" font-family="sans-serif" font-size="11" lengthAdjust="spacing" textLength="19.0083" x="336.7429" y="559.5464">yes</text><rect fill="#F1F1F1" height="33.9688" rx="12.5" ry="12.5" style="stroke:#181818;stroke-width:0.5;" width="254.6738" x="297.1062" y="730.2222"/><text fill="#000000" font-family="sans-serif" font-size="12" lengthAdjust="spacing" textLength="234.6738" x="307.1062" y="751.3608">Nutzer auf letzte Erinnerung hinweisen</text><polygon fill="#F1F1F1" points="319.1885,681.8198,529.6978,681.8198,541.6978,693.8198,529.6978,705.8198,319.1885,705.8198,307.1885,693.8198,319.1885,681.8198" style="stroke:#181818;stroke-width:0.5;"/><text fill="#000000" font-family="sans-serif" font-size="11" lengthAdjust="spacing" textLength="9.9849" x="428.4431" y="716.0303">Ja</text><text fill="#000000" font-family="sans-serif" font-size="11" lengthAdjust="spacing" textLength="210.5093" x="319.1885" y="697.6279">Ist letzte wiederkehrende Erinnerung?</text><polygon fill="#F1F1F1" points="424.4431,784.1909,436.4431,796.1909,424.4431,808.1909,412.4431,796.1909,424.4431,784.1909" style="stroke:#181818;stroke-width:0.5;"/><rect fill="#F1F1F1" height="33.9688" rx="12.5" ry="12.5" style="stroke:#181818;stroke-width:0.5;" width="268.3965" x="290.2449" y="828.1909"/><text fill="#000000" font-family="sans-serif" font-size="12" lengthAdjust="spacing" textLength="248.3965" x="300.2449" y="849.3296">Push Benachrichtigung an Nutzer senden</text><polygon fill="#F1F1F1" points="321.6995,882.1597,527.1868,882.1597,539.1868,894.1597,527.1868,906.1597,321.6995,906.1597,309.6995,894.1597,321.6995,882.1597" style="stroke:#181818;stroke-width:0.5;"/><text fill="#000000" font-family="sans-serif" font-size="11" lengthAdjust="spacing" textLength="205.4873" x="321.6995" y="897.9678">Ist Benachrichtigung wiederkehrend?</text><text fill="#000000" font-family="sans-serif" font-size="11" lengthAdjust="spacing" textLength="9.9849" x="299.7146" y="891.5654">Ja</text><text fill="#000000" font-family="sans-serif" font-size="11" lengthAdjust="spacing" textLength="25.0239" x="539.1868" y="891.5654">Nein</text><polygon fill="#F1F1F1" points="189.2944,916.1597,288.0581,916.1597,300.0581,928.1597,288.0581,940.1597,189.2944,940.1597,177.2944,928.1597,189.2944,916.1597" style="stroke:#181818;stroke-width:0.5;"/><text fill="#000000" font-family="sans-serif" font-size="11" lengthAdjust="spacing" textLength="98.7637" x="189.2944" y="931.9678">War es die letzte?</text><text fill="#000000" font-family="sans-serif" font-size="11" lengthAdjust="spacing" textLength="9.9849" x="167.3096" y="925.5654">Ja</text><text fill="#000000" font-family="sans-serif" font-size="11" lengthAdjust="spacing" textLength="25.0239" x="300.0581" y="925.5654">Nein</text><rect fill="#F1F1F1" height="33.9688" rx="12.5" ry="12.5" style="stroke:#181818;stroke-width:0.5;" width="216.2422" x="11" y="950.1597"/><text fill="#000000" font-family="sans-serif" font-size="12" lengthAdjust="spacing" textLength="196.2422" x="21" y="971.2983">Erinnerungszeitstempel updaten</text><rect fill="#F1F1F1" height="33.9688" rx="12.5" ry="12.5" style="stroke:#181818;stroke-width:0.5;" width="221.9785" x="247.2422" y="950.1597"/><text fill="#000000" font-family="sans-serif" font-size="12" lengthAdjust="spacing" textLength="201.9785" x="257.2422" y="971.2983">Benachrichtigung aus DB l&#246;schen</text><polygon fill="#F1F1F1" points="238.6763,990.1284,250.6763,1002.1284,238.6763,1014.1284,226.6763,1002.1284,238.6763,990.1284" style="stroke:#181818;stroke-width:0.5;"/><rect fill="#F1F1F1" height="33.9688" rx="12.5" ry="12.5" style="stroke:#181818;stroke-width:0.5;" width="221.9785" x="499.2207" y="916.1597"/><text fill="#000000" font-family="sans-serif" font-size="12" lengthAdjust="spacing" textLength="201.9785" x="509.2207" y="937.2983">Benachrichtigung aus DB l&#246;schen</text><polygon fill="#F1F1F1" points="424.4431,1020.1284,436.4431,1032.1284,424.4431,1044.1284,412.4431,1032.1284,424.4431,1020.1284" style="stroke:#181818;stroke-width:0.5;"/><rect fill="#F1F1F1" height="33.9688" rx="12.5" ry="12.5" style="stroke:#181818;stroke-width:0.5;" width="293.75" x="277.5681" y="1064.1284"/><text fill="#000000" font-family="sans-serif" font-size="12" lengthAdjust="spacing" textLength="273.75" x="287.5681" y="1085.2671">Nutzer bekommt Benachrichtigung angezeigt</text><polygon fill="#F1F1F1" points="343.2402,1118.0972,505.646,1118.0972,517.646,1130.0972,505.646,1142.0972,343.2402,1142.0972,331.2402,1130.0972,343.2402,1118.0972" style="stroke:#181818;stroke-width:0.5;"/><text fill="#000000" font-family="sans-serif" font-size="11" lengthAdjust="spacing" textLength="162.4058" x="343.2402" y="1133.9053">Klickt nutzer auf Notification?</text><text fill="#000000" font-family="sans-serif" font-size="11" lengthAdjust="spacing" textLength="9.9849" x="321.2554" y="1127.5029">Ja</text><text fill="#000000" font-family="sans-serif" font-size="11" lengthAdjust="spacing" textLength="25.0239" x="517.646" y="1127.5029">Nein</text><rect fill="#F1F1F1" height="33.9688" rx="12.5" ry="12.5" style="stroke:#181818;stroke-width:0.5;" width="85.6426" x="278.4189" y="1152.0972"/><text fill="#000000" font-family="sans-serif" font-size="12" lengthAdjust="spacing" textLength="65.6426" x="288.4189" y="1173.2358">App &#246;ffnen</text><rect fill="#F1F1F1" height="33.9688" rx="12.5" ry="12.5" style="stroke:#181818;stroke-width:0.5;" width="219.7813" x="417.7554" y="1152.0972"/><text fill="#000000" font-family="sans-serif" font-size="12" lengthAdjust="spacing" textLength="199.7813" x="427.7554" y="1173.2358">Benachrichtigung wird verworfen</text><polygon fill="#F1F1F1" points="424.4431,1192.0659,436.4431,1204.0659,424.4431,1216.0659,412.4431,1204.0659,424.4431,1192.0659" style="stroke:#181818;stroke-width:0.5;"/><rect fill="#F1F1F1" height="33.9688" rx="12.5" ry="12.5" style="stroke:#181818;stroke-width:0.5;" width="318.125" x="866.4465" y="175.2656"/><text fill="#000000" font-family="sans-serif" font-size="12" lengthAdjust="spacing" textLength="298.125" x="876.4465" y="196.4043">Fehlermeldung nicht unterst&#252;tzer Browser zeigen</text><ellipse cx="1025.509" cy="255.2344" fill="none" rx="11" ry="11" style="stroke:#222222;stroke-width:1;"/><ellipse cx="1025.509" cy="255.2344" fill="#222222" rx="6" ry="6" style="stroke:#222222;stroke-width:1;"/><ellipse cx="724.9761" cy="1247.0659" fill="none" rx="11" ry="11" style="stroke:#222222;stroke-width:1;"/><ellipse cx="724.9761" cy="1247.0659" fill="#222222" rx="6" ry="6" style="stroke:#222222;stroke-width:1;"/><line style="stroke:#181818;stroke-width:1;" x1="724.9761" x2="724.9761" y1="67.2969" y2="87.2969"/><polygon fill="#181818" points="720.9761,77.2969,724.9761,87.2969,728.9761,77.2969,724.9761,81.2969" style="stroke:#181818;stroke-width:1;"/><line style="stroke:#181818;stroke-width:1;" x1="742.053" x2="742.053" y1="346.2031" y2="366.2031"/><polygon fill="#181818" points="738.053,356.2031,742.053,366.2031,746.053,356.2031,742.053,360.2031" style="stroke:#181818;stroke-width:1;"/><line style="stroke:#181818;stroke-width:1;" x1="478.6428" x2="468.6428" y1="290.2344" y2="290.2344"/><line style="stroke:#181818;stroke-width:1;" x1="468.6428" x2="468.6428" y1="290.2344" y2="312.2344"/><polygon fill="#181818" points="464.6428,302.2344,468.6428,312.2344,472.6428,302.2344,468.6428,306.2344" style="stroke:#181818;stroke-width:1;"/><line style="stroke:#181818;stroke-width:1;" x1="732.053" x2="742.053" y1="290.2344" y2="290.2344"/><line style="stroke:#181818;stroke-width:1;" x1="742.053" x2="742.053" y1="290.2344" y2="312.2344"/><polygon fill="#181818" points="738.053,302.2344,742.053,312.2344,746.053,302.2344,742.053,306.2344" style="stroke:#181818;stroke-width:1;"/><line style="stroke:#181818;stroke-width:1;" x1="468.6428" x2="468.6428" y1="346.2031" y2="410.2031"/><line style="stroke:#181818;stroke-width:1;" x1="468.6428" x2="436.4431" y1="410.2031" y2="410.2031"/><polygon fill="#181818" points="446.4431,406.2031,436.4431,410.2031,446.4431,414.2031,442.4431,410.2031" style="stroke:#181818;stroke-width:1;"/><line style="stroke:#181818;stroke-width:1;" x1="605.3479" x2="605.3479" y1="243.2344" y2="278.2344"/><polygon fill="#181818" points="601.3479,268.2344,605.3479,278.2344,609.3479,268.2344,605.3479,272.2344" style="stroke:#181818;stroke-width:1;"/><line style="stroke:#181818;stroke-width:1;" x1="336.4529" x2="243.5383" y1="187.2656" y2="187.2656"/><line style="stroke:#181818;stroke-width:1;" x1="243.5383" x2="243.5383" y1="187.2656" y2="209.2656"/><polygon fill="#181818" points="239.5383,199.2656,243.5383,209.2656,247.5383,199.2656,243.5383,203.2656" style="stroke:#181818;stroke-width:1;"/><line style="stroke:#181818;stroke-width:1;" x1="512.4333" x2="605.3479" y1="187.2656" y2="187.2656"/><line style="stroke:#181818;stroke-width:1;" x1="605.3479" x2="605.3479" y1="187.2656" y2="209.2656"/><polygon fill="#181818" points="601.3479,199.2656,605.3479,209.2656,609.3479,199.2656,605.3479,203.2656" style="stroke:#181818;stroke-width:1;"/><line style="stroke:#181818;stroke-width:1;" x1="243.5383" x2="243.5383" y1="243.2344" y2="410.2031"/><line style="stroke:#181818;stroke-width:1;" x1="243.5383" x2="412.4431" y1="410.2031" y2="410.2031"/><polygon fill="#181818" points="402.4431,406.2031,412.4431,410.2031,402.4431,414.2031,406.4431,410.2031" style="stroke:#181818;stroke-width:1;"/><line style="stroke:#181818;stroke-width:1;" x1="424.4431" x2="424.4431" y1="422.2031" y2="442.2031"/><polygon fill="#181818" points="420.4431,432.2031,424.4431,442.2031,428.4431,432.2031,424.4431,436.2031" style="stroke:#181818;stroke-width:1;"/><line style="stroke:#181818;stroke-width:1;" x1="424.4431" x2="424.4431" y1="476.1719" y2="496.1719"/><polygon fill="#181818" points="420.4431,486.1719,424.4431,496.1719,428.4431,486.1719,424.4431,490.1719" style="stroke:#181818;stroke-width:1;"/><line style="stroke:#181818;stroke-width:1;" x1="424.4431" x2="424.4431" y1="574.1406" y2="605.8511"/><polygon fill="#181818" points="420.4431,595.8511,424.4431,605.8511,428.4431,595.8511,424.4431,599.8511" style="stroke:#181818;stroke-width:1;"/><line style="stroke:#181818;stroke-width:1;" x1="424.4431" x2="424.4431" y1="639.8198" y2="649.8198"/><line style="stroke:#181818;stroke-width:1;" x1="424.4431" x2="543.4041" y1="649.8198" y2="649.8198"/><polygon fill="#181818" points="539.4041,614.4331,543.4041,604.4331,547.4041,614.4331,543.4041,610.4331" style="stroke:#181818;stroke-width:1;"/><line style="stroke:#181818;stroke-width:1;" x1="543.4041" x2="543.4041" y1="562.1406" y2="649.8198"/><line style="stroke:#181818;stroke-width:1;" x1="543.4041" x2="493.135" y1="562.1406" y2="562.1406"/><polygon fill="#181818" points="503.135,558.1406,493.135,562.1406,503.135,566.1406,499.135,562.1406" style="stroke:#181818;stroke-width:1;"/><line style="stroke:#181818;stroke-width:1;" x1="355.7512" x2="305.4822" y1="562.1406" y2="562.1406"/><polygon fill="#181818" points="301.4822,600.4331,305.4822,610.4331,309.4822,600.4331,305.4822,604.4331" style="stroke:#181818;stroke-width:1;"/><line style="stroke:#181818;stroke-width:1;" x1="305.4822" x2="305.4822" y1="562.1406" y2="661.8198"/><line style="stroke:#181818;stroke-width:1;" x1="305.4822" x2="424.4431" y1="661.8198" y2="661.8198"/><line style="stroke:#181818;stroke-width:1;" x1="424.4431" x2="424.4431" y1="661.8198" y2="681.8198"/><polygon fill="#181818" points="420.4431,671.8198,424.4431,681.8198,428.4431,671.8198,424.4431,675.8198" style="stroke:#181818;stroke-width:1;"/><line style="stroke:#181818;stroke-width:1;" x1="424.4431" x2="424.4431" y1="530.1406" y2="550.1406"/><polygon fill="#181818" points="420.4431,540.1406,424.4431,550.1406,428.4431,540.1406,424.4431,544.1406" style="stroke:#181818;stroke-width:1;"/><line style="stroke:#181818;stroke-width:1;" x1="424.4431" x2="424.4431" y1="705.8198" y2="730.2222"/><polygon fill="#181818" points="420.4431,720.2222,424.4431,730.2222,428.4431,720.2222,424.4431,724.2222" style="stroke:#181818;stroke-width:1;"/><line style="stroke:#181818;stroke-width:1;" x1="541.6978" x2="561.78" y1="693.8198" y2="693.8198"/><polygon fill="#181818" points="557.78,737.2065,561.78,747.2065,565.78,737.2065,561.78,741.2065" style="stroke:#181818;stroke-width:1;"/><line style="stroke:#181818;stroke-width:1;" x1="561.78" x2="561.78" y1="693.8198" y2="796.1909"/><line style="stroke:#181818;stroke-width:1;" x1="561.78" x2="436.4431" y1="796.1909" y2="796.1909"/><polygon fill="#181818" points="446.4431,792.1909,436.4431,796.1909,446.4431,800.1909,442.4431,796.1909" style="stroke:#181818;stroke-width:1;"/><line style="stroke:#181818;stroke-width:1;" x1="424.4431" x2="424.4431" y1="764.1909" y2="784.1909"/><polygon fill="#181818" points="420.4431,774.1909,424.4431,784.1909,428.4431,774.1909,424.4431,778.1909" style="stroke:#181818;stroke-width:1;"/><line style="stroke:#181818;stroke-width:1;" x1="424.4431" x2="424.4431" y1="808.1909" y2="828.1909"/><polygon fill="#181818" points="420.4431,818.1909,424.4431,828.1909,428.4431,818.1909,424.4431,822.1909" style="stroke:#181818;stroke-width:1;"/><line style="stroke:#181818;stroke-width:1;" x1="177.2944" x2="119.1211" y1="928.1597" y2="928.1597"/><line style="stroke:#181818;stroke-width:1;" x1="119.1211" x2="119.1211" y1="928.1597" y2="950.1597"/><polygon fill="#181818" points="115.1211,940.1597,119.1211,950.1597,123.1211,940.1597,119.1211,944.1597" style="stroke:#181818;stroke-width:1;"/><line style="stroke:#181818;stroke-width:1;" x1="300.0581" x2="358.2314" y1="928.1597" y2="928.1597"/><line style="stroke:#181818;stroke-width:1;" x1="358.2314" x2="358.2314" y1="928.1597" y2="950.1597"/><polygon fill="#181818" points="354.2314,940.1597,358.2314,950.1597,362.2314,940.1597,358.2314,944.1597" style="stroke:#181818;stroke-width:1;"/><line style="stroke:#181818;stroke-width:1;" x1="119.1211" x2="119.1211" y1="984.1284" y2="1002.1284"/><line style="stroke:#181818;stroke-width:1;" x1="119.1211" x2="226.6763" y1="1002.1284" y2="1002.1284"/><polygon fill="#181818" points="216.6763,998.1284,226.6763,1002.1284,216.6763,1006.1284,220.6763,1002.1284" style="stroke:#181818;stroke-width:1;"/><line style="stroke:#181818;stroke-width:1;" x1="358.2314" x2="358.2314" y1="984.1284" y2="1002.1284"/><line style="stroke:#181818;stroke-width:1;" x1="358.2314" x2="250.6763" y1="1002.1284" y2="1002.1284"/><polygon fill="#181818" points="260.6763,998.1284,250.6763,1002.1284,260.6763,1006.1284,256.6763,1002.1284" style="stroke:#181818;stroke-width:1;"/><line style="stroke:#181818;stroke-width:1;" x1="309.6995" x2="238.6763" y1="894.1597" y2="894.1597"/><line style="stroke:#181818;stroke-width:1;" x1="238.6763" x2="238.6763" y1="894.1597" y2="916.1597"/><polygon fill="#181818" points="234.6763,906.1597,238.6763,916.1597,242.6763,906.1597,238.6763,910.1597" style="stroke:#181818;stroke-width:1;"/><line style="stroke:#181818;stroke-width:1;" x1="539.1868" x2="610.21" y1="894.1597" y2="894.1597"/><line style="stroke:#181818;stroke-width:1;" x1="610.21" x2="610.21" y1="894.1597" y2="916.1597"/><polygon fill="#181818" points="606.21,906.1597,610.21,916.1597,614.21,906.1597,610.21,910.1597" style="stroke:#181818;stroke-width:1;"/><line style="stroke:#181818;stroke-width:1;" x1="238.6763" x2="238.6763" y1="1014.1284" y2="1032.1284"/><line style="stroke:#181818;stroke-width:1;" x1="238.6763" x2="412.4431" y1="1032.1284" y2="1032.1284"/><polygon fill="#181818" points="402.4431,1028.1284,412.4431,1032.1284,402.4431,1036.1284,406.4431,1032.1284" style="stroke:#181818;stroke-width:1;"/><line style="stroke:#181818;stroke-width:1;" x1="610.21" x2="610.21" y1="950.1284" y2="1032.1284"/><line style="stroke:#181818;stroke-width:1;" x1="610.21" x2="436.4431" y1="1032.1284" y2="1032.1284"/><polygon fill="#181818" points="446.4431,1028.1284,436.4431,1032.1284,446.4431,1036.1284,442.4431,1032.1284" style="stroke:#181818;stroke-width:1;"/><line style="stroke:#181818;stroke-width:1;" x1="424.4431" x2="424.4431" y1="862.1597" y2="882.1597"/><polygon fill="#181818" points="420.4431,872.1597,424.4431,882.1597,428.4431,872.1597,424.4431,876.1597" style="stroke:#181818;stroke-width:1;"/><line style="stroke:#181818;stroke-width:1;" x1="424.4431" x2="424.4431" y1="1044.1284" y2="1064.1284"/><polygon fill="#181818" points="420.4431,1054.1284,424.4431,1064.1284,428.4431,1054.1284,424.4431,1058.1284" style="stroke:#181818;stroke-width:1;"/><line style="stroke:#181818;stroke-width:1;" x1="331.2402" x2="321.2402" y1="1130.0972" y2="1130.0972"/><line style="stroke:#181818;stroke-width:1;" x1="321.2402" x2="321.2402" y1="1130.0972" y2="1152.0972"/><polygon fill="#181818" points="317.2402,1142.0972,321.2402,1152.0972,325.2402,1142.0972,321.2402,1146.0972" style="stroke:#181818;stroke-width:1;"/><line style="stroke:#181818;stroke-width:1;" x1="517.646" x2="527.646" y1="1130.0972" y2="1130.0972"/><line style="stroke:#181818;stroke-width:1;" x1="527.646" x2="527.646" y1="1130.0972" y2="1152.0972"/><polygon fill="#181818" points="523.646,1142.0972,527.646,1152.0972,531.646,1142.0972,527.646,1146.0972" style="stroke:#181818;stroke-width:1;"/><line style="stroke:#181818;stroke-width:1;" x1="321.2402" x2="321.2402" y1="1186.0659" y2="1204.0659"/><line style="stroke:#181818;stroke-width:1;" x1="321.2402" x2="412.4431" y1="1204.0659" y2="1204.0659"/><polygon fill="#181818" points="402.4431,1200.0659,412.4431,1204.0659,402.4431,1208.0659,406.4431,1204.0659" style="stroke:#181818;stroke-width:1;"/><line style="stroke:#181818;stroke-width:1;" x1="527.646" x2="527.646" y1="1186.0659" y2="1204.0659"/><line style="stroke:#181818;stroke-width:1;" x1="527.646" x2="436.4431" y1="1204.0659" y2="1204.0659"/><polygon fill="#181818" points="446.4431,1200.0659,436.4431,1204.0659,446.4431,1208.0659,442.4431,1204.0659" style="stroke:#181818;stroke-width:1;"/><line style="stroke:#181818;stroke-width:1;" x1="424.4431" x2="424.4431" y1="1098.0972" y2="1118.0972"/><polygon fill="#181818" points="420.4431,1108.0972,424.4431,1118.0972,428.4431,1108.0972,424.4431,1112.0972" style="stroke:#181818;stroke-width:1;"/><line style="stroke:#181818;stroke-width:1;" x1="1025.509" x2="1025.509" y1="209.2344" y2="244.2344"/><polygon fill="#181818" points="1021.509,234.2344,1025.509,244.2344,1029.509,234.2344,1025.509,238.2344" style="stroke:#181818;stroke-width:1;"/><line style="stroke:#181818;stroke-width:1;" x1="582.8989" x2="424.4431" y1="153.2656" y2="153.2656"/><line style="stroke:#181818;stroke-width:1;" x1="424.4431" x2="424.4431" y1="153.2656" y2="175.2656"/><polygon fill="#181818" points="420.4431,165.2656,424.4431,175.2656,428.4431,165.2656,424.4431,169.2656" style="stroke:#181818;stroke-width:1;"/><line style="stroke:#181818;stroke-width:1;" x1="867.0532" x2="1025.509" y1="153.2656" y2="153.2656"/><line style="stroke:#181818;stroke-width:1;" x1="1025.509" x2="1025.509" y1="153.2656" y2="175.2656"/><polygon fill="#181818" points="1021.509,165.2656,1025.509,175.2656,1029.509,165.2656,1025.509,169.2656" style="stroke:#181818;stroke-width:1;"/><line style="stroke:#181818;stroke-width:1;" x1="424.4431" x2="424.4431" y1="1216.0659" y2="1221.0659"/><line style="stroke:#181818;stroke-width:1;" x1="424.4431" x2="724.9761" y1="1221.0659" y2="1221.0659"/><line style="stroke:#181818;stroke-width:1;" x1="724.9761" x2="724.9761" y1="1221.0659" y2="1236.0659"/><polygon fill="#181818" points="720.9761,1226.0659,724.9761,1236.0659,728.9761,1226.0659,724.9761,1230.0659" style="stroke:#181818;stroke-width:1;"/><line style="stroke:#181818;stroke-width:1;" x1="724.9761" x2="724.9761" y1="121.2656" y2="141.2656"/><polygon fill="#181818" points="720.9761,131.2656,724.9761,141.2656,728.9761,131.2656,724.9761,135.2656" style="stroke:#181818;stroke-width:1;"/><?plantuml-src ZLHBZjim3Dth55mcLqWMHT9EWMc1O82YcBLYqnPXMJOaQeB9UNA6MNNdYvN-nNOIj0COi27paO_laM9YY_0IWu53nPHHefag1xk2wOsukN18IUTUbwLIWRLdfJQ7o6VqK5GkepnwGi_mvCavzD7bMwKeWzLln-W3Dt_upB3trIa8f2kqHwSJuoanB72Ne_ko1ZReOFL3hnL02z-Znp40GcA4avH1idmJ3B3POs2KenJXLpo6n5FTDM4gYsuhCMW3mkg0vAw89OLmd9VJBlCwxw4zcoTlTJmo39r_heskKXUwODMgWjQEwM-v2UOx6ek-H9lsRCv8LpO0WQkwHxgKCZMzvTaiAaMNpdoHHB1xUORG2jLbQm7TIOtInT9580VVzaFKoP1CoMh-Dp1apSLQogLh2WjrNsLCH8QZ79zZ2Qwv92Qq9ryD9iMsfppaVCUmLeFdpvBKeimBmeamHL-WyPsjK-LxzmTFTCn6y8od8NT22iCO34BrdJyqiHLfIBZGQQHt5xyWUaUkXOaQW05Ime7Vep6PA0TncqMjiaOBiKur_sDIxkd78BQ1RJvaPwx0SL3-jmQFu3rOJK8ViQZAaXz9bsCxgZpJxAUbf61maqVpQ-RUp5rTG_EHPUwJYolw-nJUq9ygdorTLalmpLQvDeLioFMI4dhZBJNjMxThWmBTzry0?></g></svg>